<?xml version="1.0" standalone="no"?>
<!DOCTYPE svg PUBLIC "-//W3C//DTD SVG 20010904//EN"
 "http://www.w3.org/TR/2001/REC-SVG-20010904/DTD/svg10.dtd">
<svg version="1.0" xmlns="http://www.w3.org/2000/svg"
 width="512.000000pt" height="512.000000pt" viewBox="0 0 512.000000 512.000000"
 preserveAspectRatio="xMidYMid meet">

<g transform="translate(0.000000,512.000000) scale(0.100000,-0.100000)"
fill="#000000" stroke="none">
<path d="M2512 5100 c-19 -18 -22 -32 -22 -90 0 -60 3 -71 22 -84 76 -53 148
26 119 129 -17 64 -75 85 -119 45z"/>
<path d="M2040 4970 c-28 -28 -25 -68 10 -123 34 -53 69 -68 109 -46 53 30 50
93 -7 160 -29 36 -81 40 -112 9z"/>
<path d="M2960 4948 c-17 -23 -33 -53 -37 -66 -13 -52 38 -101 92 -88 32 8 85
88 85 128 0 39 -32 68 -75 68 -29 0 -40 -6 -65 -42z"/>
<path d="M2436 4744 c-226 -49 -402 -230 -452 -466 -38 -178 25 -383 159 -521
43 -45 67 -103 52 -127 -3 -6 -24 -10 -46 -10 -47 0 -79 -27 -79 -69 0 -45 29
-72 83 -78 l47 -6 0 -111 c0 -131 15 -173 79 -227 46 -40 98 -59 160 -59 40 0
41 -1 41 -35 l0 -35 -485 0 -485 0 -1 33 c-1 54 -22 100 -58 124 -32 22 -44
23 -203 23 -184 0 -221 -8 -251 -53 -15 -24 -17 -65 -17 -406 l0 -381 29 -32
29 -33 194 -3 c188 -3 195 -2 222 19 34 27 56 75 56 124 l0 35 85 0 85 0 -2
-362 -3 -363 -211 -3 -212 -2 -3 124 c-3 107 -7 128 -25 152 -45 61 -66 69
-194 72 -116 4 -120 3 -145 -22 -32 -32 -33 -75 -2 -104 21 -19 34 -22 120
-22 l97 0 0 -863 0 -863 26 -52 c14 -29 42 -65 62 -82 77 -63 3 -60 1373 -60
1368 0 1289 -3 1369 60 21 17 50 54 64 82 l26 52 0 863 0 863 98 0 c90 0 100
2 120 23 29 31 28 72 -3 103 -25 25 -29 26 -145 22 -128 -3 -149 -11 -194 -72
-18 -24 -22 -45 -25 -152 l-3 -124 -212 2 -211 3 -5 790 c-6 890 0 831 -83
880 -43 24 -48 25 -240 25 l-197 0 0 24 c0 21 6 24 47 29 54 6 83 33 83 76 0
44 -22 64 -76 70 -48 6 -49 7 -52 44 -3 34 3 44 62 109 102 109 165 261 166
396 0 121 -58 286 -106 298 -68 17 -108 -34 -85 -109 38 -125 45 -178 34 -243
-16 -93 -61 -180 -132 -256 -71 -76 -91 -118 -91 -188 l0 -50 -65 0 -65 0 2
261 3 262 27 20 27 20 45 -41 c53 -49 85 -53 121 -17 43 42 34 71 -49 158 -89
94 -102 96 -192 31 l-64 -45 -64 45 c-89 64 -101 62 -191 -31 -84 -87 -93
-116 -50 -158 36 -36 68 -32 121 17 l45 41 27 -20 27 -20 3 -262 2 -261 -64 0
-63 0 -7 62 c-9 79 -25 109 -97 185 -171 179 -168 435 7 611 74 74 146 110
250 125 64 10 82 8 161 -12 48 -13 98 -23 111 -23 50 0 79 62 52 111 -20 39
-172 82 -280 80 -25 0 -76 -7 -114 -15z m852 -2251 l2 -773 -297 0 c-291 0
-297 0 -320 -22 -31 -29 -30 -72 2 -103 l24 -25 296 0 295 0 0 -114 0 -113
-50 -5 c-29 -3 -59 -13 -71 -24 -45 -40 -49 -67 -49 -361 0 -306 3 -323 63
-367 26 -19 42 -21 186 -21 171 0 191 5 228 62 16 24 18 60 21 308 2 210 0
290 -10 320 -16 50 -66 85 -119 85 l-39 0 0 115 0 115 210 0 210 0 0 -675 0
-675 -29 -32 -29 -33 -1252 0 -1252 0 -29 33 -29 32 0 675 0 675 210 0 210 0
0 -115 0 -115 -39 0 c-53 0 -103 -35 -119 -85 -10 -30 -12 -110 -10 -320 3
-248 5 -284 21 -308 37 -57 57 -62 228 -62 144 0 160 2 186 21 60 44 63 61 63
367 0 294 -4 321 -49 361 -12 11 -42 21 -71 24 l-50 5 0 113 0 113 291 3 291
3 19 24 c25 30 24 62 -2 95 l-20 26 -289 0 -289 0 -3 383 c-3 361 -4 384 -23
416 -38 65 -64 76 -186 79 l-109 4 0 124 0 123 521 3 520 3 39 41 c34 36 39
49 45 108 l7 66 41 0 c99 0 193 63 224 151 l18 49 180 -2 180 -3 3 -772z
m-1938 232 l0 -305 -110 0 -110 0 0 305 0 305 110 0 110 0 0 -305z"/>
<path d="M2283 1230 c-32 -13 -56 -55 -49 -84 6 -26 53 -67 145 -130 74 -50
118 -50 199 4 33 22 63 40 67 40 4 0 35 -20 70 -44 86 -62 107 -66 145 -28 54
54 39 84 -87 172 -112 78 -142 80 -235 16 l-64 -44 -65 48 c-74 54 -95 62
-126 50z"/>
<path d="M2260 812 c-51 -52 -40 -79 63 -155 95 -71 108 -77 156 -77 31 0 54
10 104 44 l63 43 68 -50 c80 -60 116 -65 153 -23 12 15 23 37 23 48 0 26 -55
79 -140 136 -87 58 -126 58 -212 -1 l-63 -44 -65 48 c-89 65 -111 69 -150 31z"/>
<path d="M1699 4629 c-14 -14 -19 -30 -17 -57 3 -32 10 -42 52 -69 58 -39 89
-41 121 -8 45 44 26 99 -45 135 -50 26 -85 25 -111 -1z"/>
<path d="M3308 4630 c-69 -37 -87 -92 -43 -135 32 -33 63 -31 121 8 42 27 49
37 52 69 6 71 -54 98 -130 58z"/>
</g>
</svg>
