<?xml version="1.0" standalone="no"?>
<!DOCTYPE svg PUBLIC "-//W3C//DTD SVG 20010904//EN"
 "http://www.w3.org/TR/2001/REC-SVG-20010904/DTD/svg10.dtd">
<svg version="1.0" xmlns="http://www.w3.org/2000/svg"
 width="512.000000pt" height="512.000000pt" viewBox="0 0 512.000000 512.000000"
 preserveAspectRatio="xMidYMid meet">

<g transform="translate(0.000000,512.000000) scale(0.100000,-0.100000)"
fill="#000000" stroke="none">
<path d="M3025 5105 c-251 -55 -453 -248 -515 -491 -19 -75 -20 -116 -20
-1333 l0 -1256 -55 -45 c-146 -119 -269 -302 -335 -498 -203 -606 138 -1258
752 -1436 408 -118 832 -2 1128 310 426 448 408 1147 -41 1579 l-94 90 -5
1275 -5 1275 -28 80 c-40 112 -89 188 -174 272 -159 156 -395 225 -608 178z
m307 -164 c172 -60 303 -202 343 -372 13 -55 15 -237 15 -1338 l0 -1274 42
-36 c204 -177 290 -296 358 -499 176 -528 -148 -1107 -696 -1244 -119 -29
-322 -32 -439 -4 -181 42 -323 118 -457 245 -139 132 -229 282 -280 470 -32
115 -32 353 0 471 29 107 54 165 111 264 48 83 182 233 250 280 22 15 44 42
50 58 8 21 11 426 11 1298 0 1396 -4 1303 63 1435 59 118 199 225 340 261 71
18 216 11 289 -15z"/>
<path d="M3063 4752 c-71 -25 -129 -67 -164 -119 -62 -90 -59 -31 -59 -1139
l0 -1013 26 -20 c46 -36 93 -22 114 33 6 18 10 264 10 717 l0 689 175 0 175 0
0 -1046 c0 -687 3 -1052 10 -1064 6 -11 52 -41 103 -67 223 -115 357 -332 357
-578 0 -187 -56 -322 -190 -456 -135 -136 -274 -193 -465 -192 -173 2 -322 65
-448 190 -124 122 -189 276 -189 448 -1 192 55 328 192 465 69 70 101 94 172
128 71 35 88 47 97 73 15 42 15 396 0 438 -18 50 -72 67 -114 35 -18 -14 -20
-30 -25 -206 l-5 -192 -63 -37 c-226 -130 -369 -349 -402 -614 -36 -291 115
-598 373 -759 442 -275 1015 -63 1184 439 25 74 27 93 27 240 0 153 -1 164
-30 247 -40 112 -100 212 -177 294 -64 69 -155 139 -219 170 l-38 18 -2 1330
-3 1331 -27 50 c-78 146 -249 219 -395 167z m172 -151 c46 -21 79 -54 94 -94
7 -17 11 -115 11 -243 l0 -214 -175 0 -175 0 0 220 c0 239 2 250 57 302 53 51
119 61 188 29z"/>
<path d="M1260 4756 c-26 -14 -29 -20 -70 -109 -32 -68 -89 -101 -169 -95 -46
3 -68 11 -98 34 -56 43 -114 41 -155 -5 -26 -29 -29 -39 -24 -75 18 -122 17
-151 -2 -186 -35 -63 -82 -92 -163 -99 -64 -6 -75 -10 -100 -39 -21 -23 -29
-43 -29 -69 0 -32 8 -44 55 -87 114 -106 114 -206 0 -312 -61 -56 -70 -90 -38
-144 20 -35 52 -50 104 -50 114 0 198 -88 185 -194 -3 -28 -9 -70 -12 -93 -6
-39 -3 -46 29 -78 45 -45 83 -46 148 -5 84 55 164 52 229 -6 25 -23 45 -53 55
-85 39 -118 178 -118 213 -1 38 125 170 168 286 94 58 -37 88 -40 133 -12 43
26 54 68 35 139 -34 134 49 241 187 241 45 0 57 4 82 29 23 24 29 38 29 75 0
37 -5 49 -31 73 -72 65 -87 85 -98 128 -18 72 -1 119 70 187 54 53 59 61 59
100 -1 70 -44 108 -122 108 -101 1 -181 75 -181 168 0 26 3 74 8 107 7 57 6
61 -20 87 -37 37 -84 45 -125 21 -82 -47 -98 -53 -137 -53 -85 0 -131 33 -173
125 -15 33 -34 66 -43 73 -24 20 -88 24 -117 8z m95 -257 c59 -60 126 -91 210
-97 39 -2 87 0 108 6 36 10 37 10 37 -17 0 -115 97 -255 206 -297 l42 -16 -24
-35 c-33 -50 -48 -107 -47 -186 0 -55 6 -79 33 -133 17 -36 30 -66 28 -67 -1
-1 -29 -15 -61 -31 -94 -47 -161 -144 -174 -255 -5 -47 -8 -51 -27 -44 -12 5
-57 8 -101 8 -67 0 -89 -4 -136 -28 -31 -15 -75 -47 -97 -71 l-39 -43 -41 43
c-22 23 -64 55 -94 70 -45 24 -66 28 -133 29 -44 0 -92 -3 -107 -8 -27 -7 -28
-6 -28 32 0 101 -84 227 -184 276 l-54 26 32 61 c28 55 31 70 31 147 0 77 -3
93 -32 148 l-31 63 46 20 c100 44 180 155 190 262 4 54 6 58 26 51 12 -5 59
-8 106 -8 101 0 161 24 225 91 22 23 42 43 45 43 3 1 24 -17 45 -40z"/>
<path d="M1182 4262 c-127 -45 -225 -148 -264 -275 -59 -195 34 -402 220 -490
63 -30 74 -32 177 -32 101 0 115 2 170 29 33 16 85 55 116 85 201 202 147 532
-108 658 -68 33 -85 38 -167 40 -70 3 -103 -1 -144 -15z m210 -142 c100 -28
180 -138 180 -248 0 -106 -53 -192 -147 -238 -47 -23 -65 -26 -128 -23 -62 4
-81 9 -124 37 -151 97 -165 299 -30 418 26 23 61 46 79 51 44 14 124 15 170 3z"/>
<path d="M4127 4649 c-46 -27 -41 -105 9 -128 15 -6 85 -11 175 -11 146 0 151
1 174 25 30 30 32 64 4 99 l-20 26 -162 0 c-95 0 -170 -5 -180 -11z"/>
<path d="M4111 4024 c-28 -36 -26 -60 8 -95 29 -29 31 -29 141 -29 144 0 180
17 180 84 0 12 -10 32 -23 44 -21 20 -34 22 -154 22 -130 0 -132 0 -152 -26z"/>
<path d="M4144 3440 c-26 -10 -54 -48 -54 -71 0 -9 9 -28 21 -43 l20 -26 254
0 254 0 20 26 c27 35 26 57 -3 91 l-24 28 -234 2 c-128 1 -243 -2 -254 -7z"/>
<path d="M4133 2829 c-48 -25 -51 -104 -4 -128 11 -6 76 -11 145 -11 123 0
125 0 145 26 26 33 27 65 2 95 -18 23 -26 24 -143 26 -74 2 -132 -2 -145 -8z"/>
<path d="M4119 2211 c-17 -13 -23 -29 -23 -56 0 -27 6 -43 23 -56 21 -17 42
-19 183 -19 155 0 159 1 183 25 14 13 25 36 25 50 0 14 -11 37 -25 50 -24 24
-28 25 -183 25 -141 0 -162 -2 -183 -19z"/>
</g>
</svg>
