<?xml version="1.0" standalone="no"?>
<!DOCTYPE svg PUBLIC "-//W3C//DTD SVG 20010904//EN"
 "http://www.w3.org/TR/2001/REC-SVG-20010904/DTD/svg10.dtd">
<svg version="1.0" xmlns="http://www.w3.org/2000/svg"
 width="512.000000pt" height="512.000000pt" viewBox="0 0 512.000000 512.000000"
 preserveAspectRatio="xMidYMid meet">

<g transform="translate(0.000000,512.000000) scale(0.100000,-0.100000)"
fill="#000000" stroke="none">
<path d="M555 5111 c-11 -5 -29 -19 -40 -31 -20 -22 -20 -36 -20 -2259 0
-2139 1 -2239 18 -2301 34 -119 92 -217 186 -311 95 -94 156 -133 276 -176
l80 -28 1500 0 1500 0 75 23 c267 83 455 306 491 581 6 49 9 857 7 2263 l-3
2188 -26 25 c-14 14 -41 28 -61 31 -30 5 -41 1 -69 -24 l-34 -30 -3 -1256 c-1
-691 -5 -1256 -8 -1256 -2 0 -78 19 -167 41 -184 47 -305 58 -413 40 -38 -7
-152 -40 -254 -73 l-185 -60 -100 5 c-80 4 -153 18 -365 72 -252 64 -271 68
-380 68 -110 0 -128 -3 -380 -68 -250 -65 -271 -69 -380 -69 -114 -1 -117 0
-285 56 -94 31 -201 62 -239 69 -108 18 -229 7 -413 -40 -89 -22 -165 -41
-168 -41 -3 0 -5 113 -5 250 l0 250 149 0 c81 0 162 5 179 11 80 28 83 138 5
178 -13 7 -82 11 -177 11 l-156 0 0 100 0 100 265 0 266 0 24 24 c32 32 40 69
25 107 -24 58 -30 59 -317 59 l-263 0 0 100 0 100 155 0 c200 0 235 15 235
103 0 42 -36 82 -81 91 -18 3 -94 6 -170 6 l-139 0 0 94 0 95 264 3 c263 3
265 3 290 27 31 30 42 73 26 112 -23 55 -43 59 -325 59 l-255 0 0 100 0 100
166 0 166 0 29 29 c38 39 39 87 3 130 l-26 31 -168 0 -168 0 -4 121 -3 121
-33 29 c-32 29 -60 35 -97 20z m2365 -2737 l265 -68 140 0 140 0 190 63 c171
56 200 63 290 67 94 4 112 1 290 -44 l190 -48 0 -869 c0 -825 -1 -873 -19
-925 -57 -167 -185 -288 -348 -331 -68 -18 -137 -19 -1494 -19 -1013 0 -1438
3 -1476 11 -125 27 -249 112 -317 217 -17 27 -31 52 -31 55 0 4 104 7 231 7
150 0 238 4 252 11 64 33 76 108 26 158 l-31 31 -264 0 -264 0 2 827 3 827
190 48 c176 45 197 48 290 44 91 -3 117 -9 290 -67 l190 -63 140 0 c140 0 141
0 400 66 143 36 271 69 285 71 69 15 184 -4 440 -69z"/>
<path d="M1409 661 c-60 -60 -27 -156 57 -168 36 -5 46 -1 75 25 28 25 34 37
34 72 0 35 -6 47 -33 71 -44 40 -93 40 -133 0z"/>
</g>
</svg>
