<?xml version="1.0" standalone="no"?>
<!DOCTYPE svg PUBLIC "-//W3C//DTD SVG 20010904//EN"
 "http://www.w3.org/TR/2001/REC-SVG-20010904/DTD/svg10.dtd">
<svg version="1.0" xmlns="http://www.w3.org/2000/svg"
 width="512.000000pt" height="512.000000pt" viewBox="0 0 512.000000 512.000000"
 preserveAspectRatio="xMidYMid meet">

<g transform="translate(0.000000,512.000000) scale(0.100000,-0.100000)"
fill="#000000" stroke="none">
<path d="M3571 5104 c-30 -8 -76 -26 -102 -41 -59 -31 -148 -123 -178 -181
-48 -93 -51 -133 -51 -668 0 -492 0 -502 21 -528 26 -33 79 -36 109 -6 19 19
20 33 20 245 l0 225 290 0 290 0 2 -1062 c3 -1212 -6 -1101 96 -1165 136 -86
226 -187 294 -331 55 -116 71 -200 65 -347 -7 -205 -67 -344 -212 -491 -91
-92 -181 -149 -300 -191 -74 -25 -92 -27 -230 -27 -137 0 -157 2 -230 27 -119
40 -199 91 -301 192 -77 77 -98 105 -138 185 -64 131 -80 200 -80 340 0 87 6
134 22 193 53 186 166 337 334 445 43 28 72 55 82 77 14 29 16 114 16 724 0
678 0 691 -20 711 -27 27 -81 26 -106 -1 -18 -20 -19 -44 -24 -333 l-5 -311
-593 920 c-327 506 -609 935 -628 953 -27 25 -42 32 -74 32 -67 0 -90 -20
-175 -152 -44 -67 -108 -167 -143 -222 l-64 -98 -22 38 c-59 103 -197 304
-215 313 -11 6 -29 11 -41 11 -28 0 -70 -43 -70 -72 0 -13 42 -89 94 -169 151
-234 176 -297 176 -442 0 -156 -52 -279 -165 -393 -80 -81 -162 -126 -270
-149 -88 -18 -142 -19 -230 0 -355 75 -545 466 -383 788 10 21 126 204 257
407 l239 369 58 -89 c35 -53 69 -94 85 -100 48 -21 99 16 99 72 0 13 -38 82
-85 154 -93 143 -115 162 -180 150 -23 -5 -43 -18 -59 -39 -41 -55 -507 -779
-542 -842 -59 -108 -79 -193 -79 -335 1 -114 4 -133 32 -213 43 -121 85 -189
178 -283 101 -102 218 -164 363 -192 l93 -17 -181 -280 c-99 -153 -183 -290
-187 -303 -13 -54 73 -106 118 -70 10 7 108 155 219 328 111 173 209 323 217
332 8 9 29 20 47 23 53 11 188 81 248 130 109 86 209 243 244 383 16 65 22
182 14 267 l-5 50 154 238 154 238 22 -33 c12 -18 282 -436 600 -928 318 -492
602 -932 631 -978 l54 -83 0 -217 -1 -217 -64 -43 c-83 -57 -184 -158 -241
-243 -224 -338 -199 -767 63 -1083 29 -35 53 -66 53 -69 0 -14 -185 -166 -265
-219 -177 -118 -377 -198 -580 -234 -152 -27 -416 -25 -562 4 -340 68 -647
243 -861 492 -366 425 -480 986 -305 1509 29 89 33 108 23 132 -24 58 -104 59
-133 2 -25 -48 -64 -176 -86 -277 -134 -617 111 -1289 614 -1681 317 -246 703
-370 1105 -352 424 19 787 170 1091 455 42 40 80 72 84 72 4 0 29 -13 54 -28
72 -44 188 -89 280 -107 113 -23 314 -16 419 14 385 112 652 461 653 857 1
125 -11 200 -46 305 -62 182 -192 350 -352 457 l-53 35 0 1301 c0 820 -4 1327
-10 1371 -39 265 -295 438 -549 369z m232 -167 c59 -25 130 -101 151 -164 13
-37 16 -91 16 -255 l0 -208 -291 0 -291 0 4 213 c4 167 8 221 22 256 35 95
108 157 205 177 68 13 120 8 184 -19z"/>
<path d="M4443 4443 c-50 -10 -70 -86 -33 -123 19 -19 33 -20 235 -20 208 0
215 1 235 22 37 40 22 98 -31 117 -31 10 -356 14 -406 4z"/>
<path d="M4410 3910 c-30 -30 -27 -83 7 -110 26 -20 36 -21 236 -18 206 3 209
3 228 27 25 30 24 62 -2 95 l-20 26 -215 0 c-201 0 -215 -1 -234 -20z"/>
<path d="M3653 3865 c-17 -7 -33 -20 -37 -30 -3 -9 -6 -507 -6 -1106 0 -981
-2 -1089 -16 -1089 -8 0 -40 -12 -69 -26 -158 -74 -248 -266 -200 -430 31
-109 95 -188 198 -241 47 -25 62 -28 157 -28 93 0 112 3 162 27 183 85 262
304 179 493 -29 66 -106 143 -176 176 -33 16 -66 29 -72 29 -10 0 -13 224 -13
1089 0 1069 0 1089 -20 1113 -25 32 -49 39 -87 23z m90 -2376 c21 -6 57 -27
79 -47 120 -108 99 -285 -44 -356 -90 -45 -175 -30 -249 45 -37 36 -49 57 -58
97 -35 166 110 306 272 261z"/>
<path d="M4412 3397 c-31 -33 -29 -80 4 -106 25 -20 39 -21 231 -21 203 0 204
0 228 25 14 13 25 36 25 50 0 14 -11 37 -25 50 -24 25 -25 25 -233 25 -205 0
-209 0 -230 -23z"/>
<path d="M4417 2890 c-34 -27 -37 -80 -7 -110 19 -19 33 -20 234 -20 l215 0
20 26 c26 33 27 65 2 95 -19 24 -22 24 -228 27 -200 3 -210 2 -236 -18z"/>
<path d="M4406 2368 c-21 -30 -20 -71 3 -99 19 -23 24 -24 202 -27 100 -2 197
-1 216 3 66 12 94 78 53 123 -20 21 -27 22 -240 22 -215 0 -219 0 -234 -22z"/>
</g>
</svg>
